# xmcd CD database file
#
# Track frame offsets:
#	150
#	24209
#	40480
#
# Disc length: 860 seconds
#
# Revision: 0
# Processed by: cddbd v1.5.1PL0 Copyright (c) Steve Scherf et al.
# Submitted via: CDex 1.51
#
DISCID=1a035a03
DTITLE=#18 JUHACHI-BANG - WON'T BE LONG ☆made in pop☆
DYEAR=2005
DGENRE=Pop
TTITLE0=WON'T BE LONG ☆made in pop☆
TTITLE1=SWEET DAYS
TTITLE2=WON'T BE LONG ☆made in pop☆ (inst)
EXTD=YEAR: 2005
EXTT0=
EXTT1=
EXTT2=
PLAYORDER=
